# xmcd
#
# Track frame offsets:
#	150
#	16206
#	26937
#	40029
#	54763
#	73964
#	86480
#	106282
#	119156
#	137434
#	155810
#	174425
#	184864
#	199031
#	213914
#	234656
#	251492
#	271369
#	288877
#	302353
#	320766
#
# Disc length: 4497 seconds
#
# Revision: 1
# Processed by: cddbd v1.5.2PL0 Copyright (c) Steve Scherf et al.
# Submitted via: audiograbber 1.83.01
#
DISCID=2b118f15
DTITLE=Various Artist - CMAA - The Winners 2012 - CD2
DYEAR=2012
DGENRE=Country
TTITLE0=Slim Dusty - Indian Pacific
TTITLE1=Slim Newton - Redback On The Toilet Seat
TTITLE2=Col Joye - Heaven Is My Woman's Love
TTITLE3=Johnny Chester - She's My Kind Of Woman
TTITLE4=Bill and Boyd - Santa Never Made It Into Darwin
TTITLE5=Bullamakanka - Homa Among The Gum Trees
TTITLE6=Redgum - I Was Only 19 (A Walk In The Light Green)
TTITLE7=Smokey Dawson and Trevor Knight - Days Of Old Khancoban
TTITLE8=Anne Kirkpatrick - Out Of The Blue
TTITLE9=James Blundell and James Reyne - Way Out West
TTITLE10=Gina Jeffreys - Angel
TTITLE11=Dead Ringer Band - Living In The Circle
TTITLE12=John Williamson - Hillbilly Road
TTITLE13=Troy Cassar Daley - Big Big Love
TTITLE14=Kasye Chambers - The Captain
TTITLE15=Adam Brand - Good Friends
TTITLE16=Melinda Schneider - The Story Of My Life
TTITLE17=Adam Harvey - That's What You Call A Friend
TTITLE18=Sara Storer - Beautiful Circle
TTITLE19=Beccy Cole - Poster Girl (Wrong Side Of The World)
TTITLE20=The McClymonts - Wrapped Up Good
EXTD=
EXTT0=
EXTT1=
EXTT2=
EXTT3=
EXTT4=
EXTT5=
EXTT6=
EXTT7=
EXTT8=
EXTT9=
EXTT10=
EXTT11=
EXTT12=
EXTT13=
EXTT14=
EXTT15=
EXTT16=
EXTT17=
EXTT18=
EXTT19=
EXTT20=
PLAYORDER=
